<svg width="5807" height="832" viewBox="0 0 5807 832" fill="none" xmlns="http://www.w3.org/2000/svg">
    <path d="M1160.3 16.6862H1386.44V636.68H1768.15V815.772H1160.3V16.6862Z" fill="white"/>
    <path d="M2573.32 660.962H2235.62L2172.64 816.53H1941.94L2294.82 17.4442H2517.16L2871.55 816.53H2636.3L2573.32 660.962ZM2506.54 494.012L2404.09 238.274L2301.65 494.012H2506.54Z"
          fill="white"/>
    <path d="M4874.18 641.233V815.772H4232.18V16.6862H4859V191.225H4456.05V326.303H4811.19V495.531H4456.05V641.992H4874.18V641.233Z"
          fill="white"/>
    <path d="M5263.47 808.192C5202.76 792.256 5153.44 771.008 5114.74 744.447L5189.1 577.497C5224.77 601.022 5266.51 619.993 5313.56 634.412C5360.61 648.83 5406.9 656.419 5453.19 656.419C5539.7 656.419 5583.71 634.412 5583.71 591.157C5583.71 568.391 5571.57 551.696 5546.53 540.313C5521.49 528.93 5482.03 517.547 5427.39 505.405C5367.44 492.504 5317.35 478.844 5276.37 463.667C5236.15 448.49 5201.25 424.965 5172.41 392.334C5143.57 359.702 5129.15 315.688 5129.15 259.532C5129.15 210.965 5142.81 166.951 5169.37 127.489C5195.93 88.0285 5236.15 56.9149 5288.52 34.149C5341.64 11.383 5406.14 0 5483.54 0C5535.91 0 5587.51 6.07092 5639.11 17.4539C5689.96 29.5958 5734.73 46.2908 5774.19 69.0568L5704.37 236.766C5628.49 195.787 5554.12 175.298 5482.79 175.298C5438.01 175.298 5405.38 182.128 5384.89 195.029C5364.4 208.688 5353.78 225.383 5353.78 246.631C5353.78 267.88 5365.92 283.816 5390.2 294.44C5414.49 305.064 5453.95 316.447 5507.83 327.83C5568.54 340.731 5619.38 354.39 5658.84 369.568C5699.06 384.745 5733.21 408.27 5762.81 440.142C5792.4 472.773 5806.82 516.788 5806.82 572.185C5806.82 619.993 5793.16 663.249 5766.6 702.71C5740.04 741.412 5699.82 772.525 5646.7 796.05C5593.58 819.575 5528.32 830.958 5452.43 830.958C5387.17 831.717 5324.18 824.128 5263.47 808.192Z"
          fill="white"/>
    <path d="M3826.19 511.475C3764.72 511.475 3709.32 535.758 3668.34 574.461C3632.68 610.886 3584.87 635.929 3530.99 642.759C3529.47 642.759 3527.95 643.517 3526.43 643.517C3524.16 643.517 3521.12 643.517 3518.85 644.276C3512.02 645.035 3505.19 645.794 3498.36 645.794C3458.14 645.794 3421.71 635.929 3389.08 616.957C3378.46 610.886 3368.59 603.297 3359.48 594.95C3305.6 552.453 3271.46 487.191 3271.46 413.581C3271.46 286.091 3374.66 182.127 3502.91 182.127C3568.17 182.127 3626.6 209.446 3669.1 252.701C3710.08 291.404 3766.24 315.687 3827.7 315.687C3870.2 315.687 3903.59 315.687 3932.43 315.687C3922.56 276.226 3907.39 238.283 3886.14 203.375C3847.43 140.389 3795.07 91.063 3727.53 54.6374C3660 18.9707 3584.11 0.757935 3499.87 0.757935C3415.64 0.757935 3339.75 18.9707 3272.21 54.6374C3203.16 90.3041 3150.04 139.63 3111.33 202.616C3072.63 265.602 3053.66 336.936 3053.66 415.858C3053.66 494.78 3072.63 566.113 3111.33 629.099C3150.04 692.085 3202.4 741.411 3269.94 777.837C3337.48 813.503 3413.36 831.716 3497.6 831.716C3581.83 831.716 3657.72 813.503 3725.26 777.837C3792.8 742.17 3845.92 692.844 3883.86 629.099C3906.63 591.914 3921.8 552.453 3931.67 510.716C3902.83 511.475 3870.2 511.475 3826.19 511.475Z"
          fill="white"/>
    <path d="M283.059 295.95C312.655 267.872 352.116 251.177 395.371 251.177C437.109 251.177 475.052 266.354 503.889 292.156C534.244 325.546 577.499 346.035 625.308 346.035C716.372 346.035 789.982 272.425 789.982 181.361C789.982 90.2975 716.372 16.6875 625.308 16.6875C576.74 16.6875 533.485 37.1769 503.889 70.567C475.052 96.3684 437.109 111.546 395.371 111.546C352.116 111.546 311.896 94.8507 283.059 66.7727C253.463 35.6592 211.726 16.6875 164.676 16.6875C73.6121 16.6875 0.00211831 90.2975 0.00211831 181.361C0.00211831 272.425 73.6121 346.035 164.676 346.035C211.726 346.035 253.463 327.064 283.059 295.95ZM311.896 255.73C311.896 255.73 311.896 254.971 312.655 254.971C312.655 254.971 312.655 255.73 311.896 255.73ZM501.612 289.879C502.371 290.638 502.371 290.638 503.13 291.397C502.371 290.638 501.612 289.879 501.612 289.879ZM476.57 251.177C476.57 251.936 477.329 252.695 477.329 253.454C476.57 251.936 476.57 251.177 476.57 251.177ZM479.605 258.007C479.605 258.766 480.364 259.525 480.364 259.525C480.364 258.766 480.364 258.766 479.605 258.007ZM481.882 261.042C481.882 261.801 482.641 262.56 482.641 262.56C481.882 262.56 481.882 261.801 481.882 261.042ZM483.4 264.837C483.4 265.596 484.159 265.596 484.159 266.354C484.159 265.596 484.159 264.837 483.4 264.837ZM485.676 267.872C485.676 268.631 486.435 268.631 486.435 269.39C486.435 269.39 485.676 268.631 485.676 267.872ZM487.194 270.908C487.194 271.666 487.953 271.666 487.953 272.425C487.953 272.425 487.953 271.666 487.194 270.908ZM489.471 274.702C489.471 275.461 490.229 275.461 490.229 276.22C490.229 275.461 490.23 274.702 489.471 274.702ZM491.747 277.737C491.747 278.496 492.506 278.496 492.506 279.255C492.506 278.496 492.506 277.737 491.747 277.737ZM496.3 283.808C497.059 284.567 497.059 284.567 497.818 285.326C497.059 284.567 497.059 283.808 496.3 283.808ZM498.577 286.844C499.336 287.603 499.336 287.603 500.095 288.361C500.095 287.603 499.336 286.844 498.577 286.844ZM461.393 182.12C461.393 180.603 461.393 179.085 461.393 178.326C461.393 179.844 461.393 181.361 461.393 182.12ZM475.811 248.9C475.811 248.142 475.052 247.383 475.052 246.624C475.052 248.142 475.052 248.9 475.811 248.9ZM474.293 245.865C473.534 244.347 473.534 243.588 472.776 242.071C472.776 243.588 473.534 244.347 474.293 245.865ZM472.017 241.312C472.017 240.553 471.258 239.794 471.258 239.035C471.258 239.035 472.017 240.553 472.017 241.312ZM470.499 236.759C470.499 236 469.74 235.241 469.74 234.482C470.499 235.241 470.499 236 470.499 236.759ZM468.981 232.964C468.981 232.205 468.222 231.447 468.222 230.688C468.981 231.447 468.981 232.205 468.981 232.964ZM464.428 213.993C464.428 213.234 464.428 212.475 463.669 211.716C463.669 212.475 464.428 213.234 464.428 213.993ZM477.329 110.787C477.329 111.546 476.57 112.305 476.57 113.063C476.57 112.305 476.57 111.546 477.329 110.787ZM502.371 72.8436C501.612 73.6025 501.612 73.6024 500.854 74.3613C501.612 73.6024 502.371 72.8436 502.371 72.8436ZM500.095 75.1202C499.336 75.879 499.336 75.8791 498.577 76.6379C499.336 76.6379 500.095 75.879 500.095 75.1202ZM497.818 78.1556C497.059 78.9145 497.059 78.9145 496.3 79.6734C497.059 79.6734 497.059 78.9145 497.818 78.1556ZM493.265 84.2266C493.265 84.9854 492.506 84.9854 492.506 85.7443C492.506 85.7443 492.506 84.9854 493.265 84.2266ZM490.988 88.0209C490.988 88.7798 490.229 88.7798 490.229 89.5386C490.229 88.7798 490.229 88.0209 490.988 88.0209ZM488.712 91.0564C488.712 91.8152 487.953 91.8152 487.953 92.5741C487.953 91.8152 487.953 91.0564 488.712 91.0564ZM484.159 97.1273C484.159 97.8862 483.4 97.8862 483.4 98.645C484.159 98.645 484.159 97.8862 484.159 97.1273ZM482.641 100.922C482.641 101.68 481.882 102.439 481.882 102.439C481.882 101.68 481.882 100.922 482.641 100.922ZM480.364 103.957C480.364 104.716 479.605 105.475 479.605 105.475C480.364 105.475 480.364 104.716 480.364 103.957ZM478.846 107.751C478.846 108.51 478.088 109.269 478.088 109.269C478.088 108.51 478.846 107.751 478.846 107.751ZM461.393 172.255C461.393 171.496 461.393 170.737 461.393 169.978C461.393 169.978 461.393 171.496 461.393 172.255ZM461.393 167.702C461.393 166.943 461.393 166.184 461.393 165.425C462.151 166.184 462.151 166.943 461.393 167.702ZM462.91 159.354C462.91 158.595 462.91 157.837 462.91 157.078C462.91 158.595 462.91 158.595 462.91 159.354ZM462.91 155.56C462.91 154.801 462.91 154.042 462.91 153.283C463.669 154.042 463.669 154.801 462.91 155.56ZM463.669 151.766C463.669 151.007 463.669 150.248 464.428 149.489C464.428 150.248 463.669 151.007 463.669 151.766ZM464.428 147.971C464.428 147.212 464.428 146.454 465.187 145.695C465.187 146.454 465.187 147.212 464.428 147.971ZM465.187 144.177C465.187 143.418 465.187 142.659 465.946 141.9C465.946 142.659 465.946 143.418 465.187 144.177ZM468.981 132.794C468.981 132.035 469.74 131.276 469.74 130.517C468.981 131.276 468.981 132.035 468.981 132.794ZM469.74 129C469.74 128.241 470.499 127.482 470.499 126.723C470.499 127.482 470.499 128.241 469.74 129ZM472.776 121.411C473.534 119.893 473.534 119.134 474.293 117.617C473.534 119.134 472.776 120.652 472.776 121.411ZM474.293 116.858C474.293 116.099 475.052 115.34 475.052 114.581C475.052 115.34 475.052 116.099 474.293 116.858ZM312.655 108.51C312.655 108.51 312.655 107.751 311.896 107.751C312.655 108.51 312.655 108.51 312.655 108.51ZM317.208 118.376C317.208 118.376 317.208 119.134 317.967 119.134C317.208 119.134 317.208 119.134 317.208 118.376ZM318.726 122.17C318.726 122.17 318.726 122.929 319.485 122.929C318.726 122.929 318.726 122.929 318.726 122.17ZM321.002 129.759C321.002 130.517 321.002 130.517 321.761 131.276C321.761 130.517 321.002 130.517 321.002 129.759ZM323.279 137.347C323.279 138.106 323.279 138.106 324.038 138.865C324.038 138.106 324.038 138.106 323.279 137.347ZM325.556 144.936C325.556 145.695 325.556 145.695 325.556 146.454C325.556 146.454 325.556 145.695 325.556 144.936ZM327.073 153.283C327.073 154.042 327.073 154.801 327.073 154.801C327.073 154.042 327.073 153.283 327.073 153.283ZM315.69 248.9C315.69 248.9 315.69 248.142 316.449 248.142C315.69 248.142 315.69 248.142 315.69 248.9ZM317.208 245.106C317.208 245.106 317.208 244.347 317.967 244.347C317.208 244.347 317.208 244.347 317.208 245.106ZM320.243 237.517C320.243 236.759 320.244 236.759 321.002 236C320.244 236.759 320.243 237.517 320.243 237.517ZM321.002 233.723C321.002 232.964 321.002 232.964 321.761 232.205C321.761 232.964 321.002 233.723 321.002 233.723ZM322.52 229.929C322.52 229.17 322.52 229.17 323.279 228.411C322.52 229.17 322.52 229.929 322.52 229.929ZM323.279 226.135C323.279 225.376 323.279 225.376 324.038 224.617C324.038 225.376 324.038 226.135 323.279 226.135ZM327.832 206.404C327.832 205.645 327.832 204.886 327.832 204.127C327.832 205.645 327.832 205.645 327.832 206.404ZM329.35 190.468C329.35 189.709 329.35 188.95 329.35 187.432C329.35 188.191 329.35 188.95 329.35 190.468Z"
          fill="url(#paint0_linear_1_35)"/>
    <path d="M283.057 768.729C312.653 740.651 352.114 723.956 395.369 723.956C437.107 723.956 475.05 739.134 503.887 764.935C534.242 798.325 577.497 818.814 625.305 818.814C716.369 818.814 789.979 745.204 789.979 654.141C789.979 563.077 716.369 489.467 625.305 489.467C576.738 489.467 533.483 509.956 503.887 543.346C475.05 569.148 437.107 584.325 395.369 584.325C352.114 584.325 311.894 567.63 283.057 539.552C253.461 508.438 211.724 489.467 164.674 489.467C73.61 489.467 0 563.077 0 654.141C0 745.204 74.3689 818.814 165.433 818.814C211.724 818.814 253.461 799.843 283.057 768.729ZM311.894 728.509C311.894 728.509 311.894 727.751 312.653 727.751C312.653 727.751 312.653 727.75 311.894 728.509ZM501.61 761.899C502.369 762.658 502.369 762.658 503.128 763.417C502.369 763.417 501.61 762.658 501.61 761.899ZM476.568 723.197C476.568 723.956 477.327 724.715 477.327 725.474C476.568 724.715 476.568 723.956 476.568 723.197ZM479.603 730.786C479.603 731.545 480.362 732.304 480.362 732.304C480.362 731.545 480.362 730.786 479.603 730.786ZM481.88 733.821C481.88 734.58 482.639 735.339 482.639 735.339C481.88 735.339 481.88 734.58 481.88 733.821ZM483.398 736.857C483.398 737.616 484.156 737.616 484.156 738.375C484.156 738.375 484.156 737.616 483.398 736.857ZM487.192 743.687C487.192 744.446 487.951 744.446 487.951 745.204C487.951 745.204 487.951 744.446 487.192 743.687ZM489.469 746.722C489.469 747.481 490.227 747.481 490.227 748.24C490.227 748.24 490.227 747.481 489.469 746.722ZM491.745 749.758C491.745 750.516 492.504 750.516 492.504 751.275C492.504 751.275 492.504 750.516 491.745 749.758ZM494.022 753.552C494.781 754.311 494.781 754.311 495.539 755.07C494.781 754.311 494.781 753.552 494.022 753.552ZM496.298 756.587C497.057 757.346 497.057 757.346 497.816 758.105C497.057 757.346 497.057 756.587 496.298 756.587ZM498.575 759.623C499.334 760.382 499.334 760.382 500.093 761.141C500.093 760.382 499.334 759.623 498.575 759.623ZM461.39 654.899C461.39 653.382 461.39 651.864 461.39 651.105C461.39 652.623 461.39 654.141 461.39 654.899ZM475.809 721.68C475.809 720.921 475.05 720.162 475.05 719.403C475.05 720.162 475.05 720.921 475.809 721.68ZM474.291 717.885C473.532 716.367 473.532 715.609 472.773 714.091C472.773 715.609 473.532 717.126 474.291 717.885ZM470.497 709.538C470.497 708.779 469.738 708.02 469.738 707.261C470.497 708.02 470.497 708.779 470.497 709.538ZM468.979 705.743C468.979 704.984 468.22 704.226 468.22 703.467C468.979 704.226 468.979 704.984 468.979 705.743ZM464.426 686.772C464.426 686.013 464.426 685.254 463.667 684.495C463.667 685.254 464.426 686.013 464.426 686.772ZM477.327 583.566C477.327 584.325 476.568 585.084 476.568 585.843C476.568 584.325 476.568 584.325 477.327 583.566ZM500.093 547.899C499.334 548.658 499.334 548.658 498.575 549.417C499.334 548.658 500.093 548.658 500.093 547.899ZM493.263 557.006C493.263 557.765 492.504 557.765 492.504 558.523C492.504 557.765 492.504 557.765 493.263 557.006ZM490.986 560.041C490.986 560.8 490.227 560.8 490.227 561.559C490.227 561.559 490.227 560.8 490.986 560.041ZM488.71 563.077C488.71 563.836 487.951 563.835 487.951 564.594C487.951 564.594 487.951 563.836 488.71 563.077ZM486.433 566.871C486.433 567.63 485.674 567.63 485.674 568.389C485.674 567.63 486.433 566.871 486.433 566.871ZM484.156 569.906C484.156 570.665 483.398 570.665 483.398 571.424C484.156 570.665 484.156 570.665 484.156 569.906ZM482.639 572.942C482.639 573.701 481.88 574.46 481.88 574.46C481.88 574.46 481.88 573.701 482.639 572.942ZM480.362 576.736C480.362 577.495 479.603 578.254 479.603 578.254C480.362 577.495 480.362 577.495 480.362 576.736ZM461.39 640.481C461.39 639.722 461.39 638.963 461.39 638.204C462.149 638.963 462.149 639.722 461.39 640.481ZM462.908 628.339C462.908 627.58 462.908 626.821 462.908 626.062C463.667 626.821 463.667 627.58 462.908 628.339ZM463.667 624.545C463.667 623.786 463.667 623.027 464.426 622.268C464.426 623.027 463.667 623.786 463.667 624.545ZM464.426 620.75C464.426 619.992 464.426 619.233 465.185 618.474C465.185 619.233 465.185 619.992 464.426 620.75ZM465.185 616.197C465.185 615.438 465.185 614.68 465.944 613.921C465.944 615.438 465.944 615.438 465.185 616.197ZM466.703 612.403C466.703 611.644 466.703 610.885 467.461 610.126C466.703 611.644 466.703 611.644 466.703 612.403ZM467.461 608.609C467.461 607.85 468.22 607.091 468.22 606.332C468.22 607.85 467.461 607.85 467.461 608.609ZM468.979 604.814C468.979 604.055 469.738 603.297 469.738 602.538C468.979 604.055 468.979 604.055 468.979 604.814ZM469.738 601.02C469.738 600.261 470.497 599.502 470.497 598.743C470.497 600.261 470.497 600.261 469.738 601.02ZM471.256 597.984C471.256 597.226 472.015 596.467 472.015 595.708C472.015 595.708 471.256 596.467 471.256 597.984ZM472.773 594.19C473.532 592.672 473.532 591.914 474.291 590.396C473.532 591.914 472.773 592.672 472.773 594.19ZM474.291 588.878C474.291 588.119 475.05 587.36 475.05 586.601C475.05 587.36 475.05 588.119 474.291 588.878ZM314.17 585.084C314.17 585.084 314.171 584.325 313.412 584.325C314.171 584.325 314.17 584.325 314.17 585.084ZM329.348 650.346C329.348 651.864 329.348 653.382 329.348 654.899C329.348 652.623 329.348 651.864 329.348 650.346ZM315.688 587.36C315.688 587.36 315.688 588.119 316.447 588.119C315.688 588.119 315.688 588.119 315.688 587.36ZM317.206 591.155C317.206 591.155 317.206 591.913 317.965 591.913C317.206 591.913 317.206 591.914 317.206 591.155ZM320.241 598.743C320.241 599.502 320.241 599.502 321 600.261C320.241 599.502 320.241 598.743 320.241 598.743ZM321 602.538C321 603.297 321 603.296 321.759 604.055C321.759 603.296 321 602.538 321 602.538ZM322.518 606.332C322.518 607.091 322.518 607.091 323.277 607.85C322.518 607.091 322.518 606.332 322.518 606.332ZM323.277 610.126C323.277 610.885 323.277 610.885 324.036 611.644C324.036 610.885 324.036 610.126 323.277 610.126ZM324.795 613.921C324.795 614.68 324.795 614.679 324.795 615.438C324.795 614.679 324.795 613.921 324.795 613.921ZM327.83 629.857C327.83 630.616 327.83 631.375 327.83 632.133C327.83 630.616 327.83 630.616 327.83 629.857ZM329.348 645.793C329.348 646.552 329.348 647.311 329.348 648.828C329.348 648.07 329.348 646.552 329.348 645.793ZM317.206 717.885C317.206 717.885 317.206 717.126 317.965 717.126C317.206 717.126 317.206 717.126 317.206 717.885ZM318.724 714.091C318.724 714.091 318.724 713.332 319.483 713.332C318.724 713.332 318.724 713.332 318.724 714.091ZM321 706.502C321 705.743 321 705.743 321.759 704.984C321.759 705.743 321 705.743 321 706.502ZM323.277 698.914C323.277 698.155 323.277 698.155 324.036 697.396C324.036 698.155 324.036 698.155 323.277 698.914ZM324.795 695.119C324.795 694.36 324.795 694.36 324.795 693.602C324.795 693.602 324.795 694.36 324.795 695.119ZM325.553 691.325C325.553 690.566 325.553 690.566 325.553 689.807C325.553 689.807 325.553 690.566 325.553 691.325ZM326.312 686.772C326.312 686.013 326.312 685.254 326.312 685.254C326.312 686.013 326.312 686.772 326.312 686.772ZM327.071 682.977C327.071 682.219 327.071 681.46 327.071 681.46C327.071 682.219 327.071 682.219 327.071 682.977Z"
          fill="url(#paint1_linear_1_35)"/>
    <defs>
        <linearGradient id="paint0_linear_1_35" x1="394.991" y1="116.878" x2="394.991" y2="818.817"
                        gradientUnits="userSpaceOnUse">
            <stop stop-color="#24F5FF"/>
            <stop offset="1" stop-color="#9540FD"/>
        </linearGradient>
        <linearGradient id="paint1_linear_1_35" x1="394.991" y1="116.878" x2="394.991" y2="818.817"
                        gradientUnits="userSpaceOnUse">
            <stop stop-color="#24F5FF"/>
            <stop offset="1" stop-color="#9540FD"/>
        </linearGradient>
    </defs>
</svg>